<mxfile host="app.diagrams.net" modified="2024-06-07T07:50:55.030Z" agent="Mozilla/5.0 (X11; Ubuntu; Linux x86_64; rv:123.0) Gecko/20100101 Firefox/123.0" etag="iefFBIDJpCwuFBEA3ZEX" version="24.5.1" type="device">
  <diagram name="Page-1" id="Dvd5BGWs7hLNR_GbmJR9">
    <mxGraphModel dx="1434" dy="822" grid="1" gridSize="10" guides="1" tooltips="1" connect="1" arrows="1" fold="1" page="1" pageScale="1" pageWidth="827" pageHeight="1169" math="0" shadow="0">
      <root>
        <mxCell id="0" />
        <mxCell id="1" parent="0" />
      </root>
    </mxGraphModel>
  </diagram>
</mxfile>
